<svg data-v-423bf9ae="" xmlns="http://www.w3.org/2000/svg" viewBox="0 0 276 90" class="iconLeft"><!----><!----><!----><g data-v-423bf9ae="" id="0bfa0ceb-997c-48bf-a0af-9fd2e77106c0" fill="white" transform="matrix(5.484460905061369,0,0,5.484460905061369,84.32609867710755,16.59049324370976)"><path d="M-0.01 10.50L-0.01 0L4.38 0L4.38 0Q7 0 7 2.04L7 2.04L7 4.38L7 4.38Q7 6.42 4.38 6.42L4.38 6.42L1.46 6.42L1.46 10.50L-0.01 10.50ZM1.46 5.25L3.79 5.25L3.79 5.25Q5.54 5.25 5.54 4.08L5.54 4.08L5.54 2.33L5.54 2.33Q5.54 1.17 3.79 1.17L3.79 1.17L1.46 1.17L1.46 5.25ZM9.63 2.92L8.17 2.92L8.17 10.50L9.63 10.50L9.63 2.92ZM9.74 0.66L9.74 0.66L9.74 0.66Q9.74-0.15 8.90-0.15L8.90-0.15L8.90-0.15Q8.05-0.15 8.05 0.66L8.05 0.66L8.05 0.66Q8.05 1.46 8.90 1.46L8.90 1.46L8.90 1.46Q9.74 1.46 9.74 0.66ZM10.79 10.50L12.48 10.50L14.20 7.79L15.93 10.50L17.62 10.50L14.90 6.80L17.62 2.92L15.93 2.92L14.20 5.92L12.48 2.92L10.79 2.92L13.50 6.80L10.79 10.50ZM18.32 4.67L18.32 4.67L18.32 8.75L18.32 8.75Q18.32 10.65 21.53 10.65L21.53 10.65L21.53 10.65Q24.73 10.65 24.73 8.75L24.73 8.75L24.73 7.88L23.28 7.88L23.28 8.46L23.28 8.46Q23.28 9.48 21.53 9.48L21.53 9.48L21.53 9.48Q19.78 9.48 19.78 8.46L19.78 8.46L19.78 7.29L24.73 7.29L24.73 4.67L24.73 4.67Q24.73 2.77 21.53 2.77L21.53 2.77L21.53 2.77Q18.32 2.77 18.32 4.67ZM23.28 6.13L19.78 6.13L19.78 4.96L19.78 4.96Q19.78 3.94 21.53 3.94L21.53 3.94L21.53 3.94Q23.28 3.94 23.28 4.96L23.28 4.96L23.28 6.13ZM25.90 10.50L27.36 10.50L27.36-0.29L25.90-0.29L25.90 10.50ZM30.13 5.30L30.13 5.30L30.13 4.96L30.13 4.96Q30.13 3.94 31.73 3.94L31.73 3.94L31.73 3.94Q33.34 3.94 33.34 4.96L33.34 4.96L33.34 5.54L34.80 5.54L34.80 4.67L34.80 4.67Q34.80 2.77 31.73 2.77L31.73 2.77L31.73 2.77Q28.67 2.77 28.67 4.67L28.67 4.67L28.67 5.40L28.67 5.40Q28.67 7.17 31.73 7.29L31.73 7.29L31.73 7.29Q33.48 7.40 33.48 8.02L33.48 8.02L33.48 8.46L33.48 8.46Q33.48 9.48 31.73 9.48L31.73 9.48L31.73 9.48Q29.98 9.48 29.98 8.46L29.98 8.46L29.98 7.88L28.53 7.88L28.53 8.75L28.53 8.75Q28.53 10.65 31.73 10.65L31.73 10.65L31.73 10.65Q34.94 10.65 34.94 8.75L34.94 8.75L34.94 7.73L34.94 7.73Q34.94 6.11 31.73 5.98L31.73 5.98L31.73 5.98Q30.13 5.91 30.13 5.30Z"></path></g><!----><g data-v-423bf9ae="" id="b02b6a7a-a319-4487-8441-4534babb17f1" transform="matrix(2.8125,0,0,2.8125,-12.426001459360123,0)" stroke="none" fill="white"><path d="M27.377 11.377L16 0 4.623 11.377 16 22.753l11.377-11.376zM16 6.026l5.35 5.35L16 16.727l-5.35-5.35L16 6.026zM27.426 14.969l-5.664 5.664V32h5.664zM10.238 20.633l-5.664-5.664V32h5.664z"></path></g><!----></svg>